<svg class="img-fluid" id="outputsvg"
    xmlns="http://www.w3.org/2000/svg" style="" width="1270" height="1800" viewBox="0 0 12700 18000">
    <g id="l2GFKBwY4QSspBW0J93RoRo" fill="rgb(0,128,38)" style="transform: none;">
        <g style="transform: none;">
            <path id="phtkb0d0Q" d="M2270 12021 c0 -6 17 -30 38 -54 20 -25 69 -82 107 -127 96 -114 246 -242 380 -326 33 -21 63 -43 67 -48 4 -6 8 -570 8 -1253 l0 -1243 890 0 890 0 0 424 c0 270 4 427 10 431 5 3 60 -19 122 -49 123 -60 321 -144 354 -150 11 -2 78 -23 149 -45 70 -23 153 -45 184 -50 31 -6 99 -19 153 -30 200 -43 368 -60 683 -71 323 -10 426 -22 564 -65 42 -12 89 -26 106 -30 72 -16 402 -185 447 -228 7 -7 50 -40 96 -75 l83 -62 1065 0 c585 0 1064 2 1064 4 0 20 -150 299 -193 358 -9 13 -51 75 -93 138 -42 63 -88 127 -101 142 -14 15 -31 36 -37 46 -55 97 -432 493 -606 636 -52 43 -108 90 -125 104 -44 38 -128 100 -220 162 -44 30 -86 60 -93 67 -7 7 -19 13 -26 13 -7 0 -25 10 -39 23 -15 12 -48 33 -74 47 -26 14 -75 41 -109 61 -69 41 -238 124 -304 150 -25 9 -83 33 -130 53 -202 84 -530 168 -810 207 -41 5 -201 14 -355 19 -291 9 -368 19 -540 71 -38 11 -87 25 -109 30 -21 5 -77 28 -123 49 -46 22 -88 40 -92 40 -12 0 -200 127 -267 181 -34 27 -96 85 -138 130 l-76 80 95 117 c52 64 95 120 95 125 0 4 -673 7 -1495 7 -925 0 -1495 -4 -1495 -9z"></path>
        </g>
    </g>
    <g id="l3LqLvGN9TtosEWDIxbNdkN" fill="rgb(228,3,3)" style="transform: none;">
        <g style="transform: none;">
            <path id="pjoemlAlQ" d="M1017 2962 c40 -37 132 -123 205 -192 73 -69 153 -144 178 -167 25 -23 76 -72 113 -108 37 -36 72 -65 77 -65 6 0 10 -6 10 -12 0 -7 23 -32 50 -56 28 -24 50 -48 50 -53 0 -9 -460 -473 -536 -540 -16 -15 -36 -35 -45 -45 -9 -11 -25 -26 -35 -35 -10 -9 -33 -31 -49 -50 -17 -19 -44 -46 -60 -60 -17 -15 -38 -35 -47 -45 -41 -47 -85 -84 -91 -77 -4 3 -7 332 -7 730 l0 723 -410 0 -410 0 0 -1455 0 -1455 1500 0 1500 0 0 425 0 425 -790 0 c-746 0 -790 1 -790 18 0 18 29 47 349 352 113 107 244 233 291 280 160 158 238 230 248 230 14 0 283 -246 458 -417 46 -46 87 -83 92 -83 5 0 28 -22 51 -50 23 -27 49 -50 57 -50 8 0 14 -3 14 -7 0 -5 15 -22 33 -40 17 -17 59 -59 93 -92 33 -34 65 -61 71 -61 13 0 50 35 133 125 35 39 123 133 195 210 72 77 148 159 168 181 l37 42 -41 41 c-23 22 -43 41 -45 41 -2 0 -21 17 -42 38 -20 21 -93 89 -162 152 -69 62 -141 129 -160 149 -19 20 -89 85 -155 146 -66 60 -140 129 -165 152 -24 24 -48 43 -52 43 -18 0 -6 41 20 67 54 57 50 56 160 8 56 -25 108 -45 116 -45 7 0 42 -9 76 -20 161 -51 263 -65 490 -65 228 0 280 7 480 61 170 45 479 191 556 262 14 12 29 22 33 22 20 0 341 311 341 331 0 4 18 29 40 54 22 26 47 60 55 76 l16 29 -1522 0 -1521 0 23 -37 c12 -21 28 -45 36 -54 18 -22 16 -32 -12 -59 l-25 -23 -52 48 c-29 27 -70 66 -91 87 l-39 38 -566 0 -567 0 72 -68z"></path>
            <path id="p12zhqGvFt" d="M11400 3015 c0 -13 -87 -15 -725 -15 l-725 0 0 -390 0 -390 1375 0 1375 0 0 405 0 405 -650 0 c-571 0 -650 -2 -650 -15z"></path>
        </g>
    </g>
    <g id="l7RQPCm3E8847ZVrgG6fNlX" fill="rgb(117,7,135)" style="transform: none;">
        <g style="transform: none;">
            <path id="pOdEjViKa" d="M3250 17732 c0 -148 -3 -438 -7 -645 l-6 -377 -297 0 c-163 0 -486 -3 -718 -7 l-422 -6 0 -519 0 -518 720 0 720 0 0 -345 0 -345 490 0 490 0 0 343 0 344 182 6 c99 4 421 7 715 7 l533 0 0 531 0 530 -582 -8 c-321 -4 -641 -8 -713 -8 l-130 0 -3 643 -2 642 -485 0 -485 0 0 -268z"></path>
        </g>
    </g>
    <g id="l41l2WQxpWTvmGA2bB0DeWF" fill="rgb(0,77,255)" style="transform: none;">
        <g style="transform: none;">
            <path id="pJsWPeSnE" d="M3240 14867 l0 -132 -58 -23 c-32 -12 -63 -22 -70 -22 -22 0 -250 -117 -326 -167 -218 -143 -388 -314 -543 -545 -86 -128 -211 -432 -241 -588 -37 -185 -43 -426 -18 -625 30 -234 116 -469 253 -692 l45 -73 1483 0 1483 0 46 78 c106 181 184 377 232 587 16 68 19 122 18 355 0 307 -3 324 -83 567 -41 124 -129 310 -175 372 -14 19 -26 39 -26 43 0 18 -173 228 -246 299 -78 74 -245 209 -259 209 -5 0 -23 11 -41 25 -41 31 -264 144 -307 156 -18 5 -67 20 -109 35 l-78 26 0 124 0 124 -490 0 -490 0 0 -133z m699 -944 c143 -29 240 -73 356 -158 144 -106 292 -301 326 -429 48 -181 50 -195 51 -306 0 -111 -5 -146 -47 -298 -27 -99 -112 -237 -205 -331 -103 -106 -131 -127 -240 -184 -82 -43 -131 -63 -181 -72 -13 -3 -49 -10 -79 -16 -71 -15 -249 -15 -320 0 -30 6 -66 13 -79 16 -70 13 -230 89 -300 142 -84 64 -202 197 -252 285 -127 222 -159 519 -78 728 5 14 11 35 14 47 5 30 43 104 89 176 100 155 293 308 461 365 185 62 312 72 484 35z"></path>
        </g>
    </g>
    <g id="lA1nNXqArENObEv1fagAKN" fill="rgb(255,140,0)" style="transform: none;">
        <g style="transform: none;">
            <path id="peHyVaUlF" d="M2870 5786 l0 -245 -67 -47 c-267 -187 -400 -318 -560 -556 -86 -127 -214 -440 -242 -588 -21 -114 -33 -244 -32 -367 0 -343 70 -600 245 -910 l41 -73 1505 0 1505 0 27 48 c15 26 34 58 43 72 27 46 105 212 109 234 3 11 19 64 36 116 59 184 65 230 65 520 -1 298 -5 325 -80 550 -43 126 -141 338 -175 375 -9 11 -23 31 -30 45 -29 55 -139 190 -229 281 -90 90 -153 140 -313 253 l-68 47 0 245 0 244 -890 0 -890 0 0 -244z m1070 -902 c139 -31 245 -78 355 -159 162 -119 287 -295 339 -475 44 -153 52 -320 22 -440 -36 -143 -47 -175 -97 -266 -105 -190 -292 -349 -494 -421 -168 -60 -446 -60 -610 1 -62 22 -164 74 -214 109 -91 62 -217 201 -276 306 -53 94 -65 125 -101 271 -32 127 -16 350 32 467 8 18 12 33 10 33 -8 0 27 72 73 149 65 106 176 220 290 295 207 135 442 180 671 130z"></path>
            <path id="p116tRSuvX" d="M7395 5954 c-12 -122 1 -377 24 -484 11 -52 23 -111 26 -130 20 -114 169 -448 246 -549 69 -91 168 -212 203 -249 33 -35 165 -150 211 -184 6 -4 31 -24 58 -43 26 -19 82 -54 125 -77 42 -22 82 -45 87 -49 24 -18 259 -111 315 -124 142 -33 287 -57 375 -61 61 -3 120 -10 132 -16 41 -20 319 18 476 66 26 8 47 12 47 10 0 -13 304 123 362 163 l38 25 99 -92 c55 -50 113 -106 129 -123 15 -18 111 -110 212 -206 102 -95 219 -208 260 -250 42 -42 159 -155 260 -251 239 -226 320 -307 320 -320 0 -7 203 -10 650 -10 l650 0 0 945 0 945 -375 0 -375 0 0 -670 c0 -549 -2 -670 -13 -670 -11 0 -74 59 -202 190 -5 6 -62 59 -125 120 -63 60 -119 114 -125 120 -5 6 -25 26 -44 43 -18 18 -38 38 -45 46 -6 7 -167 169 -358 358 -192 190 -348 352 -348 360 0 7 8 25 17 39 31 48 53 89 84 154 17 36 37 79 44 95 39 81 56 134 88 266 57 234 70 387 52 602 l-7 87 -449 0 -449 0 5 -22 c2 -13 9 -66 15 -119 11 -106 -6 -300 -33 -374 -28 -76 -95 -210 -124 -245 -155 -190 -303 -295 -511 -361 -57 -18 -92 -21 -237 -21 -147 0 -179 3 -240 22 -98 31 -245 102 -287 139 -20 17 -39 31 -43 31 -11 0 -145 142 -181 192 -51 71 -108 194 -138 298 -33 116 -36 319 -7 427 l9 33 -448 0 -448 0 -7 -76z"></path>
            <path id="p5EOMzn3Y" d="M1370 3593 c-25 -25 -69 -69 -97 -97 -29 -28 -53 -56 -53 -62 0 -6 -14 -22 -32 -35 -17 -13 -36 -30 -42 -38 -13 -16 -89 -98 -149 -161 -23 -25 -58 -62 -76 -82 l-34 -37 44 -40 44 -40 567 -1 568 0 -128 117 c-131 121 -215 199 -261 244 -14 14 -82 76 -151 139 -69 63 -131 120 -138 127 -7 7 -14 13 -15 13 -1 0 -22 -21 -47 -47z"></path>
        </g>
    </g>
    <g id="l4FV1Da26nfbVfA4gIRnpcv" fill="rgb(255,237,0)" style="transform: none;">
        <g style="transform: none;">
            <path id="pBwa2VM4M" d="M2870 7500 l0 -1500 890 0 890 0 0 1500 0 1500 -890 0 -890 0 0 -1500z"></path>
            <path id="pZU8OaVzu" d="M7709 8863 c202 -202 296 -332 411 -568 66 -136 113 -268 146 -410 12 -50 18 -137 21 -305 l5 -236 -94 -61 c-152 -101 -291 -228 -425 -388 -41 -49 -143 -200 -143 -212 0 -3 -16 -32 -36 -65 -35 -57 -46 -84 -112 -263 -26 -70 -57 -196 -78 -317 l-6 -38 445 0 445 0 12 38 c31 98 88 216 134 280 36 50 170 192 181 192 4 0 23 14 43 31 42 37 189 108 287 139 61 19 93 22 240 22 146 0 180 -3 237 -21 209 -67 343 -161 506 -356 38 -45 106 -181 132 -265 l18 -55 446 -3 447 -2 -7 37 c-4 21 -18 81 -31 133 -14 52 -29 114 -34 137 -20 98 -173 406 -241 485 -15 18 -28 36 -28 41 0 11 -144 174 -194 220 -98 91 -216 186 -281 226 -38 24 -73 49 -77 55 -4 6 -8 103 -8 216 0 307 -23 511 -81 725 -11 44 -25 101 -30 126 -5 25 -29 99 -54 164 -25 65 -45 123 -45 128 0 6 -14 40 -31 76 -17 36 -39 86 -49 111 -10 25 -28 62 -40 83 l-22 37 -1073 0 -1073 0 137 -137z"></path>
        </g>
    </g>
</svg>